<svg width="756" height="440" viewBox="0 0 956 640" fill="none" xmlns="http://www.w3.org/2000/svg">
<g clip-path="url(#clip0_110_98)">
<path d="M703.876 0.398804H0.300537V451H703.876V0.398804Z" fill="#E6E6E6"/>
<path d="M683.757 56.9155H20.4189V228.688H683.757V56.9155Z" fill="white"/>
<path d="M325.699 81.7272H185.418V89.7798H325.699V81.7272Z" fill="#E6E6E6"/>
<path d="M402.043 111.101H185.418V119.154H402.043V111.101Z" fill="#1D2F45"/>
<path d="M361.962 138.776H185.418V146.828H361.962V138.776Z" fill="#E6E6E6"/>
<path d="M288.482 166.346H185.418V174.398H288.482V166.346Z" fill="#1D2F45"/>
<path d="M340.968 193.916H185.418V201.968H340.968V193.916Z" fill="#E6E6E6"/>
<path d="M138.658 78.8643H121.48V96.0415H138.658V78.8643Z" fill="#E6E6E6"/>
<path d="M138.658 106.539H121.48V123.716H138.658V106.539Z" fill="#1D2F45"/>
<path d="M138.658 134.213H121.48V151.391H138.658V134.213Z" fill="#E6E6E6"/>
<path d="M138.658 161.888H121.48V179.065H138.658V161.888Z" fill="#1D2F45"/>
<path d="M138.658 189.562H121.48V206.74H138.658V189.562Z" fill="#E6E6E6"/>
<path d="M590.993 117.99H533.735V175.248H590.993V117.99Z" fill="#E6E6E6"/>
<path d="M683.757 252.546H20.4189V424.319H683.757V252.546Z" fill="white"/>
<path d="M168.241 267.812H151.063V284.989H168.241V267.812Z" fill="#E6E6E6"/>
<path d="M138.658 267.812H121.48V284.989H138.658V267.812Z" fill="#1D2F45"/>
<path d="M412.724 305.375C407.488 296.512 400.224 289.017 391.528 283.508C382.832 277.999 372.952 274.633 362.702 273.686C352.451 272.739 342.122 274.239 332.564 278.062C323.006 281.884 314.491 287.921 307.721 295.676L303.535 292.018C310.882 283.599 320.124 277.045 330.499 272.894C340.873 268.743 352.085 267.115 363.212 268.143C374.339 269.17 385.063 272.825 394.502 278.805C403.941 284.786 411.826 292.922 417.508 302.544L412.724 305.375Z" fill="#E6E6E6"/>
<path d="M415.343 377.794L410.73 374.692C417.563 364.501 421.376 352.586 421.728 340.321C422.081 328.057 418.96 315.942 412.724 305.375L417.508 302.544C424.279 314.015 427.668 327.166 427.285 340.481C426.902 353.796 422.762 366.731 415.343 377.794Z" fill="#1D2F45"/>
<path d="M304.114 385.539C292.623 372.705 286.221 356.113 286.115 338.888C286.008 321.662 292.204 304.992 303.535 292.018L307.721 295.676C297.283 307.628 291.575 322.985 291.674 338.854C291.772 354.722 297.669 370.007 308.254 381.83L304.114 385.539Z" fill="#1D2F45"/>
<path d="M356.714 409.052C346.787 409.045 336.973 406.947 327.911 402.896C318.848 398.845 310.74 392.931 304.114 385.539L308.255 381.83C314.864 389.214 323.074 394.99 332.257 398.718C341.44 402.445 351.353 404.025 361.239 403.336C371.126 402.647 380.724 399.709 389.301 394.744C397.879 389.78 405.208 382.921 410.73 374.692L415.344 377.794C408.89 387.418 400.164 395.305 389.939 400.757C379.713 406.208 368.302 409.058 356.714 409.052Z" fill="#1D2F45"/>
<path d="M590.993 305.032H533.735V362.29H590.993V305.032Z" fill="#E6E6E6"/>
<path d="M176.352 342.249H119.095V399.507H176.352V342.249Z" fill="#E6E6E6"/>
<path d="M705 0H-5V30H705V0Z" fill="#1D2F45"/>
<path d="M22.2121 20.8215C25.2717 20.8215 27.7521 18.3412 27.7521 15.2815C27.7521 12.2219 25.2717 9.74158 22.2121 9.74158C19.1524 9.74158 16.6721 12.2219 16.6721 15.2815C16.6721 18.3412 19.1524 20.8215 22.2121 20.8215Z" fill="#00F0FF"/>
<path d="M43.2407 20.8215C46.3003 20.8215 48.7806 18.3412 48.7806 15.2815C48.7806 12.2219 46.3003 9.74158 43.2407 9.74158C40.181 9.74158 37.7007 12.2219 37.7007 15.2815C37.7007 18.3412 40.181 20.8215 43.2407 20.8215Z" fill="white"/>
<path d="M64.269 20.8215C67.3286 20.8215 69.8089 18.3412 69.8089 15.2815C69.8089 12.2219 67.3286 9.74158 64.269 9.74158C61.2093 9.74158 58.729 12.2219 58.729 15.2815C58.729 18.3412 61.2093 20.8215 64.269 20.8215Z" fill="#FF0000"/>
<path d="M817.168 623.704H831.411L838.188 568.764L817.165 568.765L817.168 623.704Z" fill="#FFB8B8"/>
<path d="M813.535 619.054L841.585 619.053H841.587C846.328 619.053 850.874 620.937 854.227 624.289C857.579 627.641 859.462 632.188 859.463 636.929V637.51L813.536 637.511L813.535 619.054Z" fill="#2F2E41"/>
<path d="M781.694 569.766L792.205 579.379L834.284 543.411L818.771 529.224L781.694 569.766Z" fill="#FFB8B8"/>
<path d="M782.151 563.883L802.851 582.813L802.852 582.814C806.35 586.014 808.434 590.472 808.646 595.208C808.857 599.944 807.178 604.571 803.979 608.069L803.587 608.498L769.695 577.503L782.151 563.883Z" fill="#2F2E41"/>
<path d="M839.555 430.772L835.518 511.511L845.611 599.316L815.333 603.353L796.158 492.336L790.102 416.642L839.555 430.772Z" fill="#2F2E41"/>
<path d="M886.99 401.504C886.99 401.504 899.101 481.234 873.869 507.474C848.638 533.715 814.324 580.14 814.324 580.14L790.102 549.863L851.666 484.262L839.555 439.855L790.102 416.642L798.176 361.134L870.842 360.125L886.99 401.504Z" fill="#2F2E41"/>
<path d="M831.416 216.812C845.067 216.812 856.133 205.746 856.133 192.095C856.133 178.444 845.067 167.377 831.416 167.377C817.765 167.377 806.698 178.444 806.698 192.095C806.698 205.746 817.765 216.812 831.416 216.812Z" fill="#FFB8B8"/>
<path d="M851.917 227.224L855.703 232.96L865.796 261.219L857.722 371.226L810.287 372.236L804.232 246.08L816.917 230.224L851.917 227.224Z" fill="#CCCCCC"/>
<path d="M785.056 249.108L776.982 248.099C776.982 248.099 774.963 249.108 773.954 256.173C772.945 263.237 760.834 325.81 760.834 325.81L776.982 402.513L795.148 378.291L784.047 335.903L795.148 293.515L785.056 249.108Z" fill="#2F2E41"/>
<path d="M887.999 248.099H894.054L909.193 329.847L895.064 393.43L880.934 370.217L884.971 344.986L882.953 322.783L875.888 309.662L887.999 248.099Z" fill="#2F2E41"/>
<path d="M846.021 192.095L841.527 190.971C841.527 190.971 838.157 171.871 830.292 174.118C822.427 176.365 802.204 178.612 802.204 169.624C802.204 160.636 821.304 152.771 832.539 153.895C843.774 155.018 858.123 158.746 861.751 175.242C867.565 201.686 849.754 208.365 849.754 208.365L850.05 207.402C850.873 204.729 850.932 201.879 850.22 199.174C849.508 196.468 848.054 194.016 846.021 192.095Z" fill="#2F2E41"/>
<path d="M777.991 248.099L810.287 234.978L817.856 229.428L840.564 329.847L855.703 284.431L851.161 226.4L893.045 248.099L878.916 316.727L876.897 342.967L882.953 364.162C882.953 364.162 904.147 379.3 897.082 395.448C890.017 411.596 881.943 412.605 881.943 412.605C881.943 412.605 847.629 380.31 845.611 372.236C843.592 364.162 840.564 350.032 840.564 350.032C840.564 350.032 823.407 414.624 803.222 413.615C783.038 412.605 783.037 391.411 783.037 391.411L788.084 369.208L796.158 345.995L792.121 307.644L777.991 248.099Z" fill="#2F2E41"/>
<path d="M954.953 639.224H686.953C686.687 639.224 686.433 639.119 686.246 638.931C686.058 638.744 685.953 638.489 685.953 638.224C685.953 637.959 686.058 637.705 686.246 637.517C686.433 637.33 686.687 637.224 686.953 637.224H954.953C955.218 637.224 955.472 637.33 955.66 637.517C955.847 637.705 955.953 637.959 955.953 638.224C955.953 638.489 955.847 638.744 955.66 638.931C955.472 639.119 955.218 639.224 954.953 639.224Z" fill="#1D2F45"/>
</g>
<defs>
<clipPath id="clip0_110_98">
<rect width="955.953" height="639.224" fill="white"/>
</clipPath>
</defs>
</svg>
