<svg width="58" height="58" viewBox="0 0 58 58" fill="none" xmlns="http://www.w3.org/2000/svg">
<g id="Frame 73">
<circle id="Ellipse 4" cx="29" cy="29" r="28.5" stroke="black"/>
<g id="mail">
<mask id="mask0_70_227" style="mask-type:alpha" maskUnits="userSpaceOnUse" x="9" y="9" width="40" height="40">
<rect id="Bounding box" x="9" y="9" width="40" height="40" fill="#D9D9D9"/>
</mask>
<g mask="url(#mask0_70_227)">
<path id="mail_2" d="M15.6668 42.3333C14.7502 42.3333 13.9654 42.0069 13.3127 41.3542C12.6599 40.7014 12.3335 39.9167 12.3335 39V19C12.3335 18.0833 12.6599 17.2986 13.3127 16.6458C13.9654 15.993 14.7502 15.6667 15.6668 15.6667H42.3335C43.2502 15.6667 44.0349 15.993 44.6877 16.6458C45.3404 17.2986 45.6668 18.0833 45.6668 19V39C45.6668 39.9167 45.3404 40.7014 44.6877 41.3542C44.0349 42.0069 43.2502 42.3333 42.3335 42.3333H15.6668ZM29.0002 30.6667L42.3335 22.3333V19L29.0002 27.3333L15.6668 19V22.3333L29.0002 30.6667Z" fill="#1C1B1F"/>
</g>
</g>
</g>
</svg>
