<svg width="535" height="445" viewBox="0 0 735 645" fill="none" xmlns="http://www.w3.org/2000/svg">
<path d="M236.675 599.981L223.505 612.105L233.971 594.544C225.726 579.591 212.24 566.668 212.24 566.668C212.24 566.668 184.262 593.474 184.262 614.544C184.262 635.615 196.788 642.972 212.24 642.972C227.692 642.972 240.218 635.615 240.218 614.544C240.044 609.499 238.838 604.543 236.675 599.981Z" fill="#F2F2F2"/>
<path d="M220.118 612.762V613.8C220.057 625.873 218.021 635.292 214.026 641.925C213.969 642.023 213.907 642.115 213.851 642.213L213.403 641.94L212.977 641.673C217.409 634.511 218.977 624.387 219.034 613.857C219.039 613.518 219.044 613.173 219.039 612.829C219.023 608.371 218.751 603.862 218.314 599.481C218.283 599.142 218.247 598.797 218.211 598.453C217.604 592.673 216.73 587.151 215.835 582.354C215.774 582.015 215.707 581.676 215.64 581.341C214.092 573.228 212.514 567.351 212.154 566.05C212.113 565.891 212.087 565.803 212.082 565.783L212.57 565.644L212.576 565.639L213.069 565.5C213.074 565.521 213.162 565.814 213.306 566.359C213.856 568.395 215.285 573.922 216.689 581.213C216.751 581.542 216.817 581.881 216.879 582.221C217.609 586.113 218.324 590.463 218.89 595.028C219.034 596.175 219.162 597.306 219.275 598.422C219.316 598.766 219.352 599.111 219.383 599.45C219.856 604.186 220.101 608.623 220.118 612.762Z" fill="white"/>
<path d="M216.689 581.213C216.345 581.259 215.995 581.305 215.64 581.341C214.677 581.44 213.709 581.49 212.74 581.49C208.613 581.496 204.536 580.575 200.812 578.796C200.596 579.069 200.38 579.341 200.159 579.619C204.077 581.531 208.38 582.523 212.74 582.519C213.774 582.519 214.807 582.464 215.835 582.354C216.185 582.318 216.535 582.272 216.879 582.221C219.723 581.813 222.488 580.975 225.08 579.737C224.859 579.454 224.643 579.177 224.432 578.904C221.979 580.051 219.37 580.829 216.689 581.213Z" fill="white"/>
<path d="M219.275 598.422C218.92 598.442 218.566 598.453 218.211 598.453C218.103 598.458 217.99 598.458 217.882 598.458C213.409 598.458 209.003 597.376 205.039 595.306C201.074 593.235 197.67 590.236 195.115 586.565C194.909 586.869 194.703 587.172 194.503 587.48C197.166 591.195 200.676 594.221 204.741 596.309C208.807 598.397 213.311 599.486 217.882 599.486C218.026 599.486 218.17 599.486 218.314 599.481C218.674 599.476 219.028 599.466 219.383 599.45C224.873 599.169 230.166 597.313 234.628 594.103C234.464 593.8 234.299 593.496 234.129 593.193C229.792 596.344 224.63 598.161 219.275 598.422Z" fill="white"/>
<path d="M220.119 612.762C219.759 612.793 219.399 612.813 219.039 612.829C218.653 612.844 218.268 612.854 217.882 612.854C211.872 612.847 206.026 610.894 201.219 607.287C196.412 603.679 192.903 598.612 191.218 592.843C190.986 593.26 190.755 593.671 190.534 594.087C192.433 599.843 196.098 604.853 201.008 608.406C205.917 611.96 211.821 613.876 217.882 613.883C218.268 613.883 218.653 613.877 219.034 613.857C219.399 613.847 219.759 613.826 220.119 613.8C227.388 613.232 234.17 609.922 239.091 604.54C238.983 604.16 238.86 603.785 238.736 603.404C233.983 608.826 227.305 612.182 220.119 612.762Z" fill="white"/>
<path d="M730.718 618.433L712.847 619.463L732.073 612.514C735.173 595.722 732.933 577.178 732.933 577.178C732.933 577.178 694.302 580.178 680.947 596.476C667.592 612.774 672.618 626.404 684.569 636.198C696.521 645.991 710.873 648.24 724.228 631.943C727.291 627.93 729.5 623.332 730.718 618.433Z" fill="#F2F2F2"/>
<path d="M709.812 617.824L709.153 618.628C701.454 627.926 693.909 633.921 686.615 636.52C686.509 636.559 686.403 636.592 686.297 636.631L686.124 636.137L685.963 635.66C693.931 632.929 701.56 626.093 708.278 617.984C708.497 617.724 708.72 617.461 708.934 617.192C711.748 613.734 714.395 610.073 716.833 606.408C717.025 606.126 717.215 605.837 717.406 605.547C720.599 600.693 723.423 595.868 725.772 591.59C725.939 591.288 726.103 590.984 726.263 590.683C730.208 583.426 732.712 577.88 733.258 576.646C733.328 576.497 733.363 576.413 733.372 576.393L733.838 576.596L733.845 576.595L734.315 576.8C734.306 576.82 734.188 577.102 733.954 577.615C733.089 579.538 730.691 584.719 727.156 591.248C726.995 591.542 726.831 591.847 726.664 592.148C724.762 595.622 722.557 599.439 720.101 603.329C719.486 604.307 718.868 605.263 718.248 606.198C718.062 606.491 717.871 606.78 717.68 607.062C715.045 611.025 712.422 614.612 709.812 617.824Z" fill="white"/>
<path d="M727.155 591.248C726.86 591.066 726.56 590.88 726.263 590.683C725.455 590.149 724.674 589.574 723.925 588.96C720.729 586.348 718.16 583.052 716.406 579.316C716.067 579.389 715.727 579.463 715.38 579.538C717.198 583.501 719.898 586.996 723.273 589.755C724.073 590.411 724.907 591.023 725.772 591.59C726.065 591.784 726.365 591.97 726.664 592.148C729.122 593.635 731.791 594.74 734.581 595.425C734.589 595.066 734.598 594.715 734.608 594.37C731.984 593.702 729.472 592.65 727.155 591.248Z" fill="white"/>
<path d="M718.248 606.198C717.961 605.989 717.68 605.772 717.406 605.547C717.319 605.483 717.231 605.411 717.148 605.343C713.688 602.508 710.966 598.879 709.212 594.764C707.458 590.65 706.725 586.173 707.076 581.714C706.724 581.818 706.373 581.922 706.022 582.034C705.728 586.595 706.524 591.16 708.346 595.352C710.167 599.544 712.961 603.241 716.496 606.138C716.607 606.229 716.719 606.321 716.833 606.408C717.115 606.632 717.396 606.849 717.68 607.062C722.104 610.324 727.375 612.243 732.861 612.589C732.926 612.25 732.991 611.911 733.052 611.569C727.7 611.257 722.555 609.391 718.248 606.198Z" fill="white"/>
<path d="M709.811 617.824C709.514 617.62 709.222 617.408 708.934 617.192C708.626 616.959 708.321 616.723 708.023 616.478C703.379 612.664 700.095 607.447 698.664 601.61C697.232 595.773 697.73 589.63 700.082 584.099C699.639 584.275 699.2 584.446 698.765 584.628C696.586 590.284 696.245 596.482 697.79 602.342C699.335 608.203 702.687 613.427 707.371 617.274C707.669 617.518 707.971 617.758 708.278 617.984C708.567 618.207 708.858 618.419 709.153 618.628C715.137 622.795 722.48 624.534 729.697 623.49C729.855 623.128 729.997 622.759 730.143 622.387C723.03 623.568 715.738 621.931 709.811 617.824Z" fill="white"/>
<path d="M110.74 630.543L124.675 630.542L127.261 576.504L110.737 576.794L110.74 630.543Z" fill="#FFB6B6"/>
<path d="M107.185 625.993L134.628 625.992H134.629C139.267 625.993 143.715 627.835 146.995 631.115C150.275 634.395 152.118 638.843 152.118 643.481V644.049L107.186 644.051L107.185 625.993Z" fill="#2F2E41"/>
<path d="M54.4071 630.543L68.3421 630.542L71.104 576.504L54.4041 576.794L54.4071 630.543Z" fill="#FFB6B6"/>
<path d="M50.8521 625.993L78.295 625.992H78.2961C82.9343 625.993 87.3825 627.835 90.6622 631.115C93.9419 634.395 95.7846 638.843 95.7849 643.481V644.049L50.8529 644.051L50.8521 625.993Z" fill="#2F2E41"/>
<path d="M190.15 399.038C190.095 397.424 189.686 395.841 188.953 394.402C188.22 392.963 187.18 391.702 185.907 390.708C184.634 389.714 183.159 389.012 181.585 388.65C180.011 388.288 178.376 388.275 176.797 388.613L156.451 355.038L147.706 373.469L168.368 402.528C169.111 405.143 170.788 407.395 173.081 408.857C175.374 410.318 178.124 410.888 180.809 410.458C183.494 410.028 185.928 408.628 187.649 406.523C189.371 404.418 190.261 401.755 190.15 399.038Z" fill="#FFB6B6"/>
<path d="M20.1316 434.158C21.081 432.851 21.7324 431.353 22.04 429.767C22.3475 428.181 22.3036 426.548 21.9115 424.981C21.5193 423.414 20.7884 421.953 19.7703 420.699C18.7521 419.445 17.4714 418.43 16.0184 417.725L20.6356 378.738L2.40158 387.888L0.812575 423.508C-0.210401 426.027 -0.273657 428.835 0.63481 431.398C1.54328 433.96 3.36035 436.101 5.74168 437.414C8.12302 438.727 10.9032 439.12 13.5553 438.52C16.2075 437.92 18.5473 436.368 20.1316 434.158Z" fill="#FFB6B6"/>
<path d="M118.911 394.664L128.779 400.51C128.779 400.51 136.797 405.614 134.101 441.116C131.404 476.617 128.182 618.852 128.182 618.852H110.69L82.3613 448.944L72.0246 620.693L53.6123 619.773C53.6123 619.773 15.9939 424.236 32.2714 403.015L118.911 394.664Z" fill="#2F2E41"/>
<path d="M26.3157 269.028C26.3157 269.028 74.304 253.6 113.022 267.984L109.852 342.668L133.735 400.924C133.735 400.924 57.8087 430.376 32.5063 405.625L39.8857 347.271L26.3157 269.028Z" fill="#1D2F45"/>
<path d="M100.121 276.755L110.178 267.984C110.178 267.984 116.886 267.905 122.658 278.225C128.431 288.545 138.889 321.857 138.889 321.857L172.371 378.572L157.642 388.698L104.539 314.432L100.121 276.755Z" fill="#1D2F45"/>
<path d="M28.096 272.71L28.7818 268.031C28.7818 268.031 10.0838 269.414 8.50212 287.431C6.92041 305.447 1.13721 407.111 1.13721 407.111L19.6323 410.793L38.031 306.451L28.096 272.71Z" fill="#1D2F45"/>
<path d="M92.9176 242.036L36.8205 253.082C35.6663 253.308 34.4697 253.067 33.4931 252.412C32.5165 251.756 31.8396 250.74 31.6111 249.587L26.8497 225.407C25.1626 216.816 26.9563 207.906 31.8363 200.637C36.7164 193.368 44.2834 188.334 52.8737 186.643C61.464 184.951 70.3746 186.74 77.6462 191.616C84.9179 196.493 89.9555 204.057 91.6516 212.647L96.413 236.826C96.6389 237.98 96.3977 239.177 95.7424 240.154C95.0872 241.13 94.0713 241.807 92.9176 242.036Z" fill="#2F2E41"/>
<path d="M66.7385 246.141C80.1101 246.141 90.9499 235.301 90.9499 221.93C90.9499 208.558 80.1101 197.718 66.7385 197.718C53.3669 197.718 42.5271 208.558 42.5271 221.93C42.5271 235.301 53.3669 246.141 66.7385 246.141Z" fill="#FFB6B6"/>
<path d="M99.7931 213.555L65.4911 220.31L64.1695 215.454L63.3805 220.725L58.0988 221.765L55.4797 212.142L53.9159 222.589L43.6959 224.601L43.6007 224.118C42.2703 217.321 43.6902 210.274 47.5489 204.523C51.4077 198.772 57.3903 194.786 64.184 193.44L69.0202 192.488C75.817 191.157 82.864 192.577 88.6152 196.436C94.3664 200.295 98.3521 206.278 99.6978 213.071L99.7931 213.555Z" fill="#2F2E41"/>
<path d="M71.2413 250.993C70.983 251.043 70.7208 251.071 70.4577 251.076L44.4675 251.591L36.2932 210.079L63.9427 204.634L63.4153 205.567C56.0785 218.55 66.8005 235.148 73.8446 243.887C74.363 244.526 74.6901 245.299 74.7884 246.117C74.8867 246.934 74.7522 247.762 74.4004 248.506C74.108 249.141 73.6692 249.698 73.12 250.13C72.5708 250.562 71.927 250.858 71.2413 250.993Z" fill="#2F2E41"/>
<path d="M440.329 0.271835H105.347V176.161H440.329V0.271835Z" fill="#F2F2F2"/>
<path d="M440.124 0H105.143V20.3905H440.124V0Z" fill="#1D2F45"/>
<path d="M434.059 28.6578H112.923V166.89H434.059V28.6578Z" fill="white"/>
<path d="M136.886 13.5161C138.749 13.5161 140.259 12.006 140.259 10.1431C140.259 8.28028 138.749 6.77014 136.886 6.77014C135.023 6.77014 133.513 8.28028 133.513 10.1431C133.513 12.006 135.023 13.5161 136.886 13.5161Z" fill="white"/>
<path d="M149.689 13.5161C151.552 13.5161 153.062 12.006 153.062 10.1431C153.062 8.28028 151.552 6.77014 149.689 6.77014C147.826 6.77014 146.316 8.28028 146.316 10.1431C146.316 12.006 147.826 13.5161 149.689 13.5161Z" fill="white"/>
<path d="M124.049 13.5161C125.912 13.5161 127.422 12.006 127.422 10.1431C127.422 8.28028 125.912 6.77014 124.049 6.77014C122.186 6.77014 120.676 8.28028 120.676 10.1431C120.676 12.006 122.186 13.5161 124.049 13.5161Z" fill="white"/>
<path d="M167.633 133.135C170.906 133.135 173.559 130.482 173.559 127.209C173.559 123.936 170.906 121.283 167.633 121.283C164.36 121.283 161.707 123.936 161.707 127.209C161.707 130.482 164.36 133.135 167.633 133.135Z" fill="#E4E4E4"/>
<path d="M219.981 117.615C223.254 117.615 225.908 114.962 225.908 111.689C225.908 108.416 223.254 105.763 219.981 105.763C216.708 105.763 214.055 108.416 214.055 111.689C214.055 114.962 216.708 117.615 219.981 117.615Z" fill="#E4E4E4"/>
<path d="M272.33 133.135C275.602 133.135 278.256 130.482 278.256 127.209C278.256 123.936 275.602 121.283 272.33 121.283C269.057 121.283 266.403 123.936 266.403 127.209C266.403 130.482 269.057 133.135 272.33 133.135Z" fill="#E4E4E4"/>
<path d="M324.678 54.8488C327.951 54.8488 330.604 52.1956 330.604 48.9226C330.604 45.6497 327.951 42.9964 324.678 42.9964C321.405 42.9964 318.751 45.6497 318.751 48.9226C318.751 52.1956 321.405 54.8488 324.678 54.8488Z" fill="#E4E4E4"/>
<path d="M377.026 54.1194C380.299 54.1194 382.952 51.4662 382.952 48.1932C382.952 44.9203 380.299 42.267 377.026 42.267C373.753 42.267 371.1 44.9203 371.1 48.1932C371.1 51.4662 373.753 54.1194 377.026 54.1194Z" fill="#E4E4E4"/>
<path d="M272.454 128.537L219.981 112.234L168.226 128L167.041 126.419L219.981 109.766L272.205 125.882L324.1 48.091L324.309 48.006L376.657 47.914L377.395 49.747L325.255 49.755L272.454 128.537Z" fill="#E4E4E4"/>
<path d="M496.432 230.63H181.194V396.152H496.432V230.63Z" fill="#F2F2F2"/>
<path d="M496.239 230.374H181.002V249.563H496.239V230.374Z" fill="#1D2F45"/>
<path d="M490.532 256.235H187.841V387.724H490.532V256.235Z" fill="white"/>
<path d="M210.874 243.093C212.627 243.093 214.048 241.672 214.048 239.919C214.048 238.166 212.627 236.745 210.874 236.745C209.121 236.745 207.7 238.166 207.7 239.919C207.7 241.672 209.121 243.093 210.874 243.093Z" fill="white"/>
<path d="M222.923 243.093C224.676 243.093 226.097 241.672 226.097 239.919C226.097 238.166 224.676 236.745 222.923 236.745C221.17 236.745 219.749 238.166 219.749 239.919C219.749 241.672 221.17 243.093 222.923 243.093Z" fill="white"/>
<path d="M198.794 243.093C200.547 243.093 201.968 241.672 201.968 239.919C201.968 238.166 200.547 236.745 198.794 236.745C197.041 236.745 195.62 238.166 195.62 239.919C195.62 241.672 197.041 243.093 198.794 243.093Z" fill="white"/>
<path d="M706.875 72.5394H332.948V268.878H706.875V72.5394Z" fill="#E6E6E6"/>
<path d="M706.646 72.2359H332.719V94.997H706.646V72.2359Z" fill="#1D2F45"/>
<path d="M697.879 101.988H341.342V257.921H697.879V101.988Z" fill="white"/>
<path d="M368.153 87.3234C370.233 87.3234 371.918 85.6377 371.918 83.5583C371.918 81.4789 370.233 79.7932 368.153 79.7932C366.074 79.7932 364.388 81.4789 364.388 83.5583C364.388 85.6377 366.074 87.3234 368.153 87.3234Z" fill="white"/>
<path d="M382.445 87.3234C384.524 87.3234 386.21 85.6377 386.21 83.5583C386.21 81.4789 384.524 79.7932 382.445 79.7932C380.366 79.7932 378.68 81.4789 378.68 83.5583C378.68 85.6377 380.366 87.3234 382.445 87.3234Z" fill="white"/>
<path d="M353.824 87.3234C355.904 87.3234 357.589 85.6377 357.589 83.5583C357.589 81.4789 355.904 79.7932 353.824 79.7932C351.745 79.7932 350.059 81.4789 350.059 83.5583C350.059 85.6377 351.745 87.3234 353.824 87.3234Z" fill="white"/>
<path d="M522.157 136.156C521.416 136.254 520.735 136.618 520.243 137.181C519.75 137.743 519.479 138.465 519.479 139.213C519.479 139.96 519.75 140.683 520.243 141.245C520.735 141.807 521.416 142.171 522.157 142.27H648.41C649.151 142.171 649.831 141.807 650.324 141.245C650.816 140.683 651.088 139.96 651.088 139.213C651.088 138.465 650.816 137.743 650.324 137.181C649.831 136.618 649.151 136.254 648.41 136.156H522.157Z" fill="#E6E6E6"/>
<path d="M522.157 208.252C521.416 208.35 520.735 208.714 520.243 209.276C519.75 209.839 519.479 210.561 519.479 211.308C519.479 212.056 519.75 212.778 520.243 213.34C520.735 213.903 521.416 214.267 522.157 214.365H648.41C649.151 214.267 649.831 213.903 650.324 213.34C650.816 212.778 651.088 212.056 651.088 211.308C651.088 210.561 650.816 209.839 650.324 209.276C649.831 208.714 649.151 208.35 648.41 208.252H522.157Z" fill="#E6E6E6"/>
<path d="M522.157 154.497C521.416 154.595 520.735 154.959 520.243 155.521C519.75 156.084 519.479 156.806 519.479 157.553C519.479 158.301 519.75 159.023 520.243 159.586C520.735 160.148 521.416 160.512 522.157 160.61H576.484C577.225 160.512 577.905 160.148 578.398 159.586C578.89 159.023 579.162 158.301 579.162 157.553C579.162 156.806 578.89 156.084 578.398 155.521C577.905 154.959 577.225 154.595 576.484 154.497H522.157Z" fill="#E6E6E6"/>
<path d="M522.157 171.979C521.416 172.077 520.735 172.441 520.243 173.004C519.75 173.566 519.479 174.288 519.479 175.036C519.479 175.783 519.75 176.506 520.243 177.068C520.735 177.63 521.416 177.994 522.157 178.093H648.41C649.151 177.994 649.831 177.63 650.324 177.068C650.816 176.506 651.088 175.783 651.088 175.036C651.088 174.288 650.816 173.566 650.324 173.004C649.831 172.441 649.151 172.077 648.41 171.979H522.157Z" fill="#E6E6E6"/>
<path d="M522.157 190.32C521.416 190.418 520.735 190.782 520.243 191.345C519.75 191.907 519.479 192.629 519.479 193.377C519.479 194.124 519.75 194.846 520.243 195.409C520.735 195.971 521.416 196.335 522.157 196.433H576.484C577.225 196.335 577.905 195.971 578.398 195.409C578.89 194.846 579.162 194.124 579.162 193.377C579.162 192.629 578.89 191.907 578.398 191.345C577.905 190.782 577.225 190.418 576.484 190.32H522.157Z" fill="#E6E6E6"/>
<path d="M448.576 211.016C448.959 211.017 449.338 210.943 449.691 210.797C450.045 210.651 450.366 210.437 450.637 210.167C450.908 209.897 451.123 209.576 451.27 209.223C451.416 208.869 451.492 208.491 451.492 208.108C451.492 207.726 451.417 207.347 451.271 206.993C451.124 206.64 450.91 206.319 450.639 206.048C450.369 205.778 450.047 205.564 449.694 205.418C449.34 205.272 448.961 205.197 448.579 205.197H389.553C389.171 205.196 388.792 205.271 388.438 205.417C388.084 205.562 387.763 205.776 387.492 206.046C387.221 206.317 387.006 206.637 386.859 206.991C386.713 207.344 386.637 207.723 386.637 208.105C386.637 208.488 386.712 208.867 386.858 209.22C387.005 209.573 387.219 209.895 387.49 210.165C387.761 210.435 388.082 210.65 388.435 210.796C388.789 210.942 389.168 211.017 389.55 211.016H448.576Z" fill="#E4E4E4"/>
<path d="M448.576 193.874C449.347 193.872 450.085 193.565 450.63 193.02C451.174 192.474 451.48 191.735 451.48 190.964C451.48 190.193 451.174 189.454 450.63 188.909C450.085 188.363 449.347 188.056 448.576 188.055H389.553C389.171 188.054 388.792 188.128 388.438 188.274C388.084 188.42 387.763 188.634 387.492 188.904C387.221 189.174 387.006 189.495 386.859 189.848C386.713 190.201 386.637 190.58 386.637 190.963C386.637 191.345 386.712 191.724 386.858 192.077C387.005 192.431 387.219 192.752 387.49 193.022C387.761 193.293 388.082 193.507 388.435 193.653C388.789 193.799 389.168 193.874 389.55 193.874H448.576Z" fill="#E4E4E4"/>
<path d="M419.064 139.505C422.687 139.505 426.228 140.579 429.239 142.591C432.251 144.604 434.599 147.464 435.985 150.811C437.371 154.157 437.734 157.84 437.027 161.392C436.32 164.945 434.576 168.208 432.015 170.77C429.454 173.331 426.19 175.075 422.638 175.782C419.085 176.489 415.402 176.126 412.056 174.74C408.709 173.354 405.849 171.006 403.837 167.994C401.824 164.983 400.75 161.442 400.75 157.819C400.755 152.964 402.687 148.309 406.12 144.875C409.554 141.442 414.209 139.51 419.064 139.505Z" fill="#1D2F45"/>
<path d="M270.952 301.473C274.909 301.473 278.118 298.264 278.118 294.307C278.118 290.35 274.909 287.141 270.952 287.141C266.995 287.141 263.786 290.35 263.786 294.307C263.786 298.264 266.995 301.473 270.952 301.473Z" fill="#E4E4E4"/>
<path d="M386.085 288.731C386.724 288.73 387.356 288.855 387.947 289.099C388.537 289.343 389.074 289.7 389.526 290.152C389.978 290.603 390.336 291.139 390.581 291.729C390.825 292.319 390.951 292.952 390.951 293.59C390.951 294.229 390.825 294.862 390.581 295.452C390.336 296.042 389.978 296.578 389.526 297.029C389.074 297.481 388.537 297.838 387.947 298.082C387.356 298.326 386.724 298.451 386.085 298.45H310.721C310.082 298.451 309.45 298.326 308.859 298.082C308.269 297.838 307.732 297.481 307.28 297.029C306.828 296.578 306.47 296.042 306.225 295.452C305.981 294.862 305.855 294.229 305.855 293.59C305.855 292.952 305.981 292.319 306.225 291.729C306.47 291.139 306.828 290.603 307.28 290.152C307.732 289.7 308.269 289.343 308.859 289.099C309.45 288.855 310.082 288.73 310.721 288.731H386.085ZM386.085 287.541H310.721C309.117 287.541 307.578 288.178 306.443 289.313C305.309 290.447 304.671 291.986 304.671 293.59C304.671 295.195 305.309 296.734 306.443 297.868C307.578 299.003 309.117 299.64 310.721 299.64H386.085C387.689 299.64 389.228 299.003 390.363 297.868C391.497 296.734 392.135 295.195 392.135 293.59C392.135 291.986 391.497 290.447 390.363 289.313C389.228 288.178 387.689 287.541 386.085 287.541Z" fill="#E4E4E4"/>
<path d="M356.348 299.64H299.615C298.01 299.64 296.471 299.003 295.337 297.868C294.202 296.734 293.565 295.195 293.565 293.59C293.565 291.986 294.202 290.447 295.337 289.313C296.471 288.178 298.01 287.541 299.615 287.541H356.348C357.952 287.541 359.491 288.178 360.625 289.313C361.76 290.447 362.397 291.986 362.397 293.59C362.397 295.195 361.76 296.734 360.625 297.868C359.491 299.003 357.952 299.64 356.348 299.64Z" fill="#E4E4E4"/>
<path d="M270.952 331.228C274.909 331.228 278.118 328.02 278.118 324.062C278.118 320.105 274.909 316.897 270.952 316.897C266.995 316.897 263.786 320.105 263.786 324.062C263.786 328.02 266.995 331.228 270.952 331.228Z" fill="#E4E4E4"/>
<path d="M386.085 318.486C386.724 318.485 387.356 318.61 387.947 318.854C388.537 319.098 389.074 319.456 389.526 319.907C389.978 320.358 390.336 320.894 390.581 321.484C390.825 322.074 390.951 322.707 390.951 323.346C390.951 323.984 390.825 324.617 390.581 325.207C390.336 325.797 389.978 326.333 389.526 326.784C389.074 327.236 388.537 327.594 387.947 327.837C387.356 328.081 386.724 328.206 386.085 328.205H310.721C310.082 328.206 309.45 328.081 308.859 327.837C308.269 327.594 307.732 327.236 307.28 326.784C306.828 326.333 306.47 325.797 306.225 325.207C305.981 324.617 305.855 323.984 305.855 323.346C305.855 322.707 305.981 322.074 306.225 321.484C306.47 320.894 306.828 320.358 307.28 319.907C307.732 319.456 308.269 319.098 308.859 318.854C309.45 318.61 310.082 318.485 310.721 318.486H386.085ZM386.085 317.296H310.721C309.117 317.296 307.578 317.933 306.443 319.068C305.309 320.202 304.671 321.741 304.671 323.346C304.671 324.95 305.309 326.489 306.443 327.623C307.578 328.758 309.117 329.395 310.721 329.395H386.085C387.689 329.395 389.228 328.758 390.363 327.623C391.497 326.489 392.135 324.95 392.135 323.346C392.135 321.741 391.497 320.202 390.363 319.068C389.228 317.933 387.689 317.296 386.085 317.296Z" fill="#E4E4E4"/>
<path d="M377.771 329.395H299.615C298.01 329.395 296.471 328.758 295.337 327.623C294.202 326.489 293.565 324.95 293.565 323.346C293.565 321.741 294.202 320.202 295.337 319.068C296.471 317.933 298.01 317.296 299.615 317.296H377.771C379.374 317.298 380.911 317.936 382.044 319.07C383.177 320.205 383.813 321.742 383.813 323.346C383.813 324.949 383.177 326.486 382.044 327.621C380.911 328.755 379.374 329.393 377.771 329.395Z" fill="#E4E4E4"/>
<path d="M270.952 360.983C274.909 360.983 278.118 357.775 278.118 353.817C278.118 349.86 274.909 346.652 270.952 346.652C266.995 346.652 263.786 349.86 263.786 353.817C263.786 357.775 266.995 360.983 270.952 360.983Z" fill="#E4E4E4"/>
<path d="M386.085 348.241C387.374 348.241 388.61 348.753 389.521 349.664C390.432 350.576 390.944 351.812 390.944 353.101C390.944 354.39 390.432 355.626 389.521 356.537C388.61 357.448 387.374 357.96 386.085 357.96H310.721C309.432 357.96 308.196 357.448 307.285 356.537C306.374 355.626 305.862 354.39 305.862 353.101C305.862 351.812 306.374 350.576 307.285 349.664C308.196 348.753 309.432 348.241 310.721 348.241H386.085ZM386.085 347.051H310.721C309.117 347.051 307.578 347.688 306.443 348.823C305.309 349.957 304.671 351.496 304.671 353.101C304.671 354.705 305.309 356.244 306.443 357.379C307.578 358.513 309.117 359.151 310.721 359.151H386.085C387.689 359.151 389.228 358.513 390.363 357.379C391.497 356.244 392.135 354.705 392.135 353.101C392.135 351.496 391.497 349.957 390.363 348.823C389.228 347.688 387.689 347.051 386.085 347.051Z" fill="#E4E4E4"/>
<path d="M386.353 359.151H299.615C298.01 359.151 296.471 358.513 295.337 357.379C294.202 356.244 293.565 354.705 293.565 353.101C293.565 351.496 294.202 349.957 295.337 348.823C296.471 347.688 298.01 347.051 299.615 347.051H386.353C387.958 347.051 389.496 347.688 390.631 348.823C391.766 349.957 392.403 351.496 392.403 353.101C392.403 354.705 391.766 356.244 390.631 357.379C389.496 358.513 387.958 359.151 386.353 359.151Z" fill="#E4E4E4"/>
<path d="M611.869 431.569C612.745 430.527 613.381 429.305 613.733 427.99C614.086 426.676 614.145 425.299 613.908 423.959C613.671 422.619 613.143 421.346 612.362 420.232C611.58 419.118 610.563 418.189 609.383 417.51L615.572 385.005L599.7 391.619L596.257 421.472C595.248 423.53 595.029 425.886 595.641 428.095C596.253 430.303 597.654 432.21 599.578 433.455C601.503 434.7 603.817 435.195 606.082 434.847C608.347 434.5 610.406 433.333 611.869 431.569Z" fill="#FFB7B7"/>
<path d="M691.005 631.024L677.566 631.023L671.173 579.187L691.008 579.188L691.005 631.024Z" fill="#FFB7B7"/>
<path d="M694.433 644.051L651.1 644.049V643.501C651.1 639.028 652.877 634.738 656.04 631.575C659.203 628.412 663.493 626.635 667.966 626.635H667.967L694.433 626.636L694.433 644.051Z" fill="#2F2E41"/>
<path d="M617.561 631.024L604.122 631.023L597.729 579.187L617.564 579.188L617.561 631.024Z" fill="#FFB7B7"/>
<path d="M617.7 644.051L574.367 644.049V643.501C574.368 639.028 576.145 634.738 579.308 631.575C582.471 628.412 586.761 626.635 591.234 626.635H591.235L617.701 626.636L617.7 644.051Z" fill="#2F2E41"/>
<path d="M616.46 412.093L603.306 442.398L592.455 616.58L619.86 615.484L627.344 532.451L650.433 458.495L663.707 540.944L669.188 613.291L691.863 614.273L700.9 412.093H616.46Z" fill="#2F2E41"/>
<path d="M682.214 262.557L644.089 263.511L621.705 275.001L620.477 359.777L606.517 418.308C606.517 418.308 693.741 424.311 705.799 415.541L691.548 348.674L710.661 276.41L682.214 262.557Z" fill="#3F3D56"/>
<path d="M625.778 276.326L621.705 275.001C621.705 275.001 608.787 283.292 610.016 303.336C610.016 303.336 609.532 313.709 609.994 320.612C610.524 328.529 594.648 407.21 594.648 407.21H617.667L627.533 335.958L625.778 276.326Z" fill="#3F3D56"/>
<path d="M710.064 432.665C709.188 431.623 708.552 430.401 708.2 429.087C707.847 427.772 707.788 426.396 708.025 425.055C708.262 423.715 708.79 422.443 709.571 421.328C710.353 420.214 711.37 419.285 712.55 418.606L706.361 386.101L722.233 392.716L725.676 422.568C726.685 424.626 726.904 426.982 726.292 429.191C725.68 431.399 724.279 433.307 722.355 434.551C720.43 435.796 718.116 436.291 715.851 435.944C713.586 435.596 711.527 434.43 710.064 432.665Z" fill="#FFB7B7"/>
<path d="M704.925 277.423L708.997 276.097C708.997 276.097 721.916 284.388 720.686 304.433C720.686 304.433 721.171 314.805 720.708 321.708C720.178 329.626 727.285 408.306 727.285 408.306H704.266L694.4 337.054L704.925 277.423Z" fill="#3F3D56"/>
<path d="M691.572 226.99C691.572 232.217 690.022 237.327 687.118 241.673C684.214 246.019 680.087 249.407 675.257 251.407C670.428 253.407 665.114 253.931 659.988 252.911C654.861 251.891 650.152 249.374 646.456 245.678C642.759 241.982 640.242 237.273 639.223 232.146C638.203 227.019 638.726 221.705 640.726 216.876C642.727 212.047 646.114 207.919 650.46 205.015C654.807 202.111 659.916 200.561 665.144 200.561C668.606 200.552 672.035 201.226 675.237 202.543C678.439 203.859 681.35 205.794 683.804 208.236C686.258 210.678 688.208 213.579 689.54 216.774C690.873 219.97 691.564 223.396 691.572 226.858C691.573 226.902 691.573 226.946 691.572 226.99Z" fill="#FFB7B7"/>
<path d="M638.803 191.491C641.899 184.834 647.89 186.15 653.13 188.407C659.765 186.935 666.076 182.528 673.226 185.134C680.268 195.377 703.912 192.363 698.882 209.039C698.876 213.035 706.401 210.709 705.087 217.253C709.074 229.847 690.698 253.699 680.149 248.676C682.758 243.894 688.717 233.034 679.678 231.957C660.233 250.05 677.672 197.503 653.239 212.785C645.15 220.188 634.074 198.896 638.803 191.491Z" fill="#2F2E41"/>
</svg>
