<svg width="58" height="58" viewBox="0 0 58 58" fill="none" xmlns="http://www.w3.org/2000/svg">
<g id="Frame 73">
<circle id="Ellipse 4" cx="29" cy="29" r="28.5" stroke="black"/>
<g id="group">
<mask id="mask0_70_230" style="mask-type:alpha" maskUnits="userSpaceOnUse" x="9" y="9" width="40" height="40">
<rect id="Bounding box" x="9" y="9" width="40" height="40" fill="#D9D9D9"/>
</mask>
<g mask="url(#mask0_70_230)">
<path id="group_2" d="M10.6665 42.3334V37.6667C10.6665 36.7222 10.9096 35.8542 11.3957 35.0625C11.8818 34.2709 12.5276 33.6667 13.3332 33.25C15.0554 32.3889 16.8054 31.7431 18.5832 31.3125C20.3609 30.882 22.1665 30.6667 23.9998 30.6667C25.8332 30.6667 27.6387 30.882 29.4165 31.3125C31.1943 31.7431 32.9443 32.3889 34.6665 33.25C35.4721 33.6667 36.1179 34.2709 36.604 35.0625C37.0901 35.8542 37.3332 36.7222 37.3332 37.6667V42.3334H10.6665ZM40.6665 42.3334V37.3334C40.6665 36.1111 40.3262 34.9375 39.6457 33.8125C38.9651 32.6875 37.9998 31.7222 36.7498 30.9167C38.1665 31.0834 39.4998 31.3681 40.7498 31.7709C41.9998 32.1736 43.1665 32.6667 44.2498 33.25C45.2498 33.8056 46.0137 34.4236 46.5415 35.1042C47.0693 35.7847 47.3332 36.5278 47.3332 37.3334V42.3334H40.6665ZM23.9998 29C22.1665 29 20.5971 28.3472 19.2915 27.0417C17.9859 25.7361 17.3332 24.1667 17.3332 22.3334C17.3332 20.5 17.9859 18.9306 19.2915 17.625C20.5971 16.3195 22.1665 15.6667 23.9998 15.6667C25.8332 15.6667 27.4026 16.3195 28.7082 17.625C30.0137 18.9306 30.6665 20.5 30.6665 22.3334C30.6665 24.1667 30.0137 25.7361 28.7082 27.0417C27.4026 28.3472 25.8332 29 23.9998 29ZM40.6665 22.3334C40.6665 24.1667 40.0137 25.7361 38.7082 27.0417C37.4026 28.3472 35.8332 29 33.9998 29C33.6943 29 33.3054 28.9653 32.8332 28.8959C32.361 28.8264 31.9721 28.75 31.6665 28.6667C32.4165 27.7778 32.9929 26.7917 33.3957 25.7084C33.7984 24.625 33.9998 23.5 33.9998 22.3334C33.9998 21.1667 33.7984 20.0417 33.3957 18.9584C32.9929 17.875 32.4165 16.8889 31.6665 16C32.0554 15.8611 32.4443 15.7709 32.8332 15.7292C33.2221 15.6875 33.6109 15.6667 33.9998 15.6667C35.8332 15.6667 37.4026 16.3195 38.7082 17.625C40.0137 18.9306 40.6665 20.5 40.6665 22.3334Z" fill="#1C1B1F"/>
</g>
</g>
</g>
</svg>