<svg width="58" height="58" viewBox="0 0 58 58" fill="none" xmlns="http://www.w3.org/2000/svg">
<g id="Frame 70">
<circle id="Ellipse 4" cx="29" cy="29" r="28.5" stroke="black"/>
<g id="call">
<mask id="mask0_70_207" style="mask-type:alpha" maskUnits="userSpaceOnUse" x="9" y="9" width="40" height="40">
<rect id="Bounding box" x="9" y="9" width="40" height="40" fill="#D9D9D9"/>
</mask>
<g mask="url(#mask0_70_207)">
<path id="call_2" d="M42.25 44C38.7778 44 35.3472 43.2431 31.9583 41.7292C28.5694 40.2153 25.4861 38.0694 22.7083 35.2917C19.9306 32.5139 17.7847 29.4306 16.2708 26.0417C14.7569 22.6528 14 19.2222 14 15.75C14 15.25 14.1667 14.8333 14.5 14.5C14.8333 14.1667 15.25 14 15.75 14H22.5C22.8889 14 23.2361 14.1319 23.5417 14.3958C23.8472 14.6597 24.0278 14.9722 24.0833 15.3333L25.1667 21.1667C25.2222 21.6111 25.2083 21.9861 25.125 22.2917C25.0417 22.5972 24.8889 22.8611 24.6667 23.0833L20.625 27.1667C21.1806 28.1944 21.8403 29.1875 22.6042 30.1458C23.3681 31.1042 24.2083 32.0278 25.125 32.9167C25.9861 33.7778 26.8889 34.5764 27.8333 35.3125C28.7778 36.0486 29.7778 36.7222 30.8333 37.3333L34.75 33.4167C35 33.1667 35.3264 32.9792 35.7292 32.8542C36.1319 32.7292 36.5278 32.6944 36.9167 32.75L42.6667 33.9167C43.0556 34.0278 43.375 34.2292 43.625 34.5208C43.875 34.8125 44 35.1389 44 35.5V42.25C44 42.75 43.8333 43.1667 43.5 43.5C43.1667 43.8333 42.75 44 42.25 44Z" fill="#1C1B1F"/>
</g>
</g>
</g>
</svg>